<svg width="1280" height="720" xmlns="http://www.w3.org/2000/svg" xmlns:xlink="http://www.w3.org/1999/xlink" overflow="hidden"><defs><filter id="fx0" x="-10%" y="-10%" width="120%" height="120%" filterUnits="userSpaceOnUse" primitiveUnits="userSpaceOnUse"><feComponentTransfer color-interpolation-filters="sRGB"><feFuncR type="discrete" tableValues="0 0"/><feFuncG type="discrete" tableValues="0 0"/><feFuncB type="discrete" tableValues="0 0"/><feFuncA type="linear" slope="0.4" intercept="0"/></feComponentTransfer><feGaussianBlur stdDeviation="2.66667 2.66667"/></filter><filter id="fx1" x="-10%" y="-10%" width="120%" height="120%" filterUnits="userSpaceOnUse" primitiveUnits="userSpaceOnUse"><feComponentTransfer color-interpolation-filters="sRGB"><feFuncR type="discrete" tableValues="0 0"/><feFuncG type="discrete" tableValues="0 0"/><feFuncB type="discrete" tableValues="0 0"/><feFuncA type="linear" slope="0.4" intercept="0"/></feComponentTransfer><feGaussianBlur stdDeviation="2.66667 2.66667"/></filter><filter id="fx2" x="-10%" y="-10%" width="120%" height="120%" filterUnits="userSpaceOnUse" primitiveUnits="userSpaceOnUse"><feComponentTransfer color-interpolation-filters="sRGB"><feFuncR type="discrete" tableValues="0 0"/><feFuncG type="discrete" tableValues="0 0"/><feFuncB type="discrete" tableValues="0 0"/><feFuncA type="linear" slope="0.4" intercept="0"/></feComponentTransfer><feGaussianBlur stdDeviation="2.66667 2.66667"/></filter><filter id="fx3" x="-10%" y="-10%" width="120%" height="120%" filterUnits="userSpaceOnUse" primitiveUnits="userSpaceOnUse"><feComponentTransfer color-interpolation-filters="sRGB"><feFuncR type="discrete" tableValues="0 0"/><feFuncG type="discrete" tableValues="0 0"/><feFuncB type="discrete" tableValues="0 0"/><feFuncA type="linear" slope="0.4" intercept="0"/></feComponentTransfer><feGaussianBlur stdDeviation="2.66667 2.66667"/></filter><filter id="fx4" x="-10%" y="-10%" width="120%" height="120%" filterUnits="userSpaceOnUse" primitiveUnits="userSpaceOnUse"><feComponentTransfer color-interpolation-filters="sRGB"><feFuncR type="discrete" tableValues="0 0"/><feFuncG type="discrete" tableValues="0 0"/><feFuncB type="discrete" tableValues="0 0"/><feFuncA type="linear" slope="0.4" intercept="0"/></feComponentTransfer><feGaussianBlur stdDeviation="2.66667 2.66667"/></filter><filter id="fx5" x="-10%" y="-10%" width="120%" height="120%" filterUnits="userSpaceOnUse" primitiveUnits="userSpaceOnUse"><feComponentTransfer color-interpolation-filters="sRGB"><feFuncR type="discrete" tableValues="0 0"/><feFuncG type="discrete" tableValues="0 0"/><feFuncB type="discrete" tableValues="0 0"/><feFuncA type="linear" slope="0.4" intercept="0"/></feComponentTransfer><feGaussianBlur stdDeviation="2.66667 2.66667"/></filter><filter id="fx6" x="-10%" y="-10%" width="120%" height="120%" filterUnits="userSpaceOnUse" primitiveUnits="userSpaceOnUse"><feComponentTransfer color-interpolation-filters="sRGB"><feFuncR type="discrete" tableValues="0 0"/><feFuncG type="discrete" tableValues="0 0"/><feFuncB type="discrete" tableValues="0 0"/><feFuncA type="linear" slope="0.4" intercept="0"/></feComponentTransfer><feGaussianBlur stdDeviation="2.66667 2.66667"/></filter><filter id="fx7" x="-10%" y="-10%" width="120%" height="120%" filterUnits="userSpaceOnUse" primitiveUnits="userSpaceOnUse"><feComponentTransfer color-interpolation-filters="sRGB"><feFuncR type="discrete" tableValues="0 0"/><feFuncG type="discrete" tableValues="0 0"/><feFuncB type="discrete" tableValues="0 0"/><feFuncA type="linear" slope="0.4" intercept="0"/></feComponentTransfer><feGaussianBlur stdDeviation="2.66667 2.66667"/></filter><filter id="fx8" x="-10%" y="-10%" width="120%" height="120%" filterUnits="userSpaceOnUse" primitiveUnits="userSpaceOnUse"><feComponentTransfer color-interpolation-filters="sRGB"><feFuncR type="discrete" tableValues="0 0"/><feFuncG type="discrete" tableValues="0 0"/><feFuncB type="discrete" tableValues="0 0"/><feFuncA type="linear" slope="0.4" intercept="0"/></feComponentTransfer><feGaussianBlur stdDeviation="2.66667 2.66667"/></filter><clipPath id="clip9"><rect x="0" y="0" width="1280" height="720"/></clipPath><linearGradient x1="332.344" y1="-186.944" x2="947.656" y2="906.944" gradientUnits="userSpaceOnUse" spreadMethod="reflect" id="fill10"><stop offset="0" stop-color="#008080"/><stop offset="0.78" stop-color="#BFD6CB"/><stop offset="1" stop-color="#BFD6CB"/></linearGradient><clipPath id="clip11"><rect x="54" y="235" width="22" height="28"/></clipPath><clipPath id="clip12"><rect x="54" y="235" width="22" height="28"/></clipPath><clipPath id="clip13"><rect x="54" y="235" width="22" height="28"/></clipPath></defs><g clip-path="url(#clip9)"><rect x="0" y="0" width="1280" height="720" fill="#FFFFFF"/><rect x="0" y="0" width="1280" height="720" fill="url(#fill10)"/><rect x="0" y="219" width="255" height="60" fill="#004846"/><g filter="url(#fx0)" transform="translate(244 -6)"><g><rect x="0" y="0" width="1024" height="720" fill="#D3D3D3" transform="matrix(-1 0 0 1 1033.17 8.82843)"/></g></g><rect x="0" y="0" width="1024" height="720" fill="#D3D3D3" transform="matrix(-1 0 0 1 1280 0)"/><text fill="#FFFFFF" font-family="Segoe UI Light,Segoe UI Light_MSFontService,sans-serif" font-weight="300" font-size="17.3333" transform="translate(100.2 257)">Resumo</text><g clip-path="url(#clip11)"><g clip-path="url(#clip12)"><g clip-path="url(#clip13)"><path d="M328.001 64.5348C328.001 64.3646 327.934 64.2013 327.814 64.08L322.788 59.0615 322.788 59.0615C322.668 58.9347 322.499 58.864 322.325 58.8666L308.382 58.8666C307.621 58.8711 307.005 59.4865 307.001 60.2471L307.001 85.4942C307.001 86.2567 307.619 86.8747 308.382 86.8747L326.621 86.8747C327.383 86.8747 328.001 86.2567 328.001 85.4942L328.001 64.5429ZM322.983 61.1079 325.768 63.8851 323.056 63.8851C323.02 63.8896 322.987 63.8644 322.983 63.8288 322.983 63.826 322.983 63.8231 322.983 63.8202L322.983 61.1079ZM326.694 85.4698C326.694 85.5056 326.665 85.5348 326.63 85.5356 326.626 85.5356 326.624 85.5348 326.621 85.5348L308.382 85.5348C308.346 85.5348 308.317 85.5056 308.317 85.4698L308.317 60.2471C308.32 60.2128 308.348 60.1858 308.382 60.1821L321.675 60.1821 321.675 63.8202C321.675 64.5826 322.293 65.2007 323.056 65.2007L326.694 65.2007 326.694 85.5023Z" fill="#FFFFFF" transform="matrix(1.02747 0 0 1 -261.224 176.133)"/><path d="M323.307 67.8399 311.703 67.8399C311.34 67.8399 311.045 68.1344 311.045 68.4977 311.045 68.8609 311.34 69.1555 311.703 69.1555L323.307 69.1555C323.67 69.1555 323.965 68.861 323.965 68.4977 323.965 68.1344 323.67 67.8399 323.307 67.8399Z" fill="#FFFFFF" transform="matrix(1.02747 0 0 1 -261.224 176.133)"/><path d="M323.307 71.7947 311.703 71.7947C311.34 71.7947 311.045 72.0892 311.045 72.4524 311.045 72.8158 311.34 73.1102 311.703 73.1102L323.307 73.1102C323.67 73.1102 323.965 72.8158 323.965 72.4524 323.965 72.0892 323.67 71.7947 323.307 71.7947Z" fill="#FFFFFF" transform="matrix(1.02747 0 0 1 -261.224 176.133)"/><path d="M323.307 75.7575 311.703 75.7575C311.342 75.7173 311.017 75.9772 310.976 76.3382 310.936 76.6993 311.196 77.0247 311.557 77.065 311.606 77.0704 311.654 77.0704 311.703 77.065L323.307 77.065C323.669 77.1052 323.994 76.8453 324.034 76.4843 324.074 76.1232 323.814 75.7978 323.454 75.7575 323.405 75.7521 323.356 75.7521 323.307 75.7575Z" fill="#FFFFFF" transform="matrix(1.02747 0 0 1 -261.224 176.133)"/><path d="M317.517 79.7123 311.719 79.7123C311.358 79.672 311.033 79.932 310.992 80.293 310.952 80.654 311.213 80.9794 311.573 81.0197 311.622 81.0252 311.671 81.0252 311.719 81.0197L317.517 81.0197C317.879 81.06 318.204 80.8001 318.244 80.439 318.284 80.078 318.024 79.7526 317.664 79.7123 317.615 79.7069 317.566 79.7069 317.517 79.7123Z" fill="#FFFFFF" transform="matrix(1.02747 0 0 1 -261.224 176.133)"/></g></g></g><path d="M82 344C82 342.491 80.7851 341.263 79.2917 341.263L77.1745 341.263C75.6079 339.579 72.9759 339.579 71.4088 341.263L54.7083 341.263C53.215 341.263 52 342.491 52 344 52 345.509 53.215 346.737 54.7083 346.737L71.4088 346.737C72.9754 348.421 75.6074 348.421 77.1745 346.737L79.2917 346.737C80.7851 346.737 82 345.509 82 344ZM54.7083 345.895C53.6744 345.895 52.8333 345.045 52.8333 344 52.8333 342.955 53.6744 342.105 54.7083 342.105L70.8066 342.105C70.1841 343.27 70.1668 344.698 70.8066 345.895ZM74.2917 347.158C72.5685 347.158 71.1667 345.741 71.1667 344 71.1667 342.259 72.5685 340.842 74.2917 340.842 76.0148 340.842 77.4167 342.259 77.4167 344 77.4167 345.741 76.0148 347.158 74.2917 347.158ZM77.7768 342.105 79.2917 342.105C80.3255 342.105 81.1667 342.955 81.1667 344 81.1667 345.045 80.3255 345.895 79.2917 345.895L77.7768 345.895C78.0784 345.33 78.25 344.685 78.25 344 78.25 343.315 78.0784 342.67 77.7768 342.105Z" fill="#FFFFFF" fill-rule="evenodd"/><path d="M54.7083 336.737 56.8255 336.737C58.392 338.421 61.0241 338.421 62.5912 336.737L79.2917 336.737C80.7851 336.737 82 335.509 82 334 82 332.491 80.7851 331.263 79.2917 331.263L62.5912 331.263C61.0248 329.579 58.3926 329.579 56.8255 331.263L54.7083 331.263C53.215 331.263 52 332.491 52 334 52 335.509 53.215 336.737 54.7083 336.737ZM79.2917 332.105C80.3255 332.105 81.1667 332.955 81.1667 334 81.1667 335.045 80.3255 335.895 79.2917 335.895L63.1934 335.895C63.8159 334.73 63.8333 333.302 63.1934 332.105ZM59.7083 330.842C61.4315 330.842 62.8333 332.259 62.8333 334 62.8333 335.741 61.4315 337.158 59.7083 337.158 57.9852 337.158 56.5833 335.741 56.5833 334 56.5833 332.259 57.9852 330.842 59.7083 330.842ZM54.7083 332.105 56.2233 332.105C55.6007 333.27 55.5834 334.698 56.2233 335.895L54.7083 335.895C53.6744 335.895 52.8333 335.045 52.8333 334 52.8333 332.955 53.6744 332.105 54.7083 332.105Z" fill="#FFFFFF" fill-rule="evenodd"/><path d="M54.7083 326.737 71.4088 326.737C72.9753 328.421 75.6074 328.421 77.1745 326.737L79.2917 326.737C80.7851 326.737 82 325.509 82 324 82 322.491 80.7851 321.263 79.2917 321.263L77.1745 321.263C75.6081 319.579 72.9759 319.579 71.4088 321.263L54.7083 321.263C53.215 321.263 52 322.491 52 324 52 325.509 53.215 326.737 54.7083 326.737ZM79.2917 322.105C80.3255 322.105 81.1667 322.955 81.1667 324 81.1667 325.045 80.3255 325.895 79.2917 325.895L77.7768 325.895C78.3993 324.73 78.4166 323.302 77.7768 322.105ZM74.2917 320.842C76.0148 320.842 77.4167 322.259 77.4167 324 77.4167 325.741 76.0148 327.158 74.2917 327.158 72.5685 327.158 71.1667 325.741 71.1667 324 71.1667 322.259 72.5685 320.842 74.2917 320.842ZM54.7083 322.105 70.8066 322.105C70.1841 323.27 70.1668 324.698 70.8066 325.895L54.7083 325.895C53.6744 325.895 52.8333 325.045 52.8333 324 52.8333 322.955 53.6744 322.105 54.7083 322.105Z" fill="#FFFFFF" fill-rule="evenodd"/><text fill="#FFFFFF" font-family="Segoe UI Light,Segoe UI Light_MSFontService,sans-serif" font-weight="300" font-size="17.3333" transform="translate(102.029 332)">Seleção do</text><text fill="#FFFFFF" font-family="Segoe UI Light,Segoe UI Light_MSFontService,sans-serif" font-weight="300" font-size="17.3333" transform="translate(102.029 351)">dashboard</text><g filter="url(#fx1)" transform="translate(259 146)"><g><path d="M9.17157 15.049C9.17157 11.6135 11.9566 8.82843 15.3921 8.82843L487.951 8.82843C491.387 8.82843 494.172 11.6135 494.172 15.049L494.172 277.608C494.172 281.043 491.387 283.828 487.951 283.828L15.3921 283.828C11.9566 283.828 9.17157 281.043 9.17157 277.608Z" fill="#FFFFFF" fill-rule="evenodd"/></g></g><path d="M271 158.221C271 154.785 273.785 152 277.221 152L749.779 152C753.215 152 756 154.785 756 158.221L756 420.779C756 424.215 753.215 427 749.779 427L277.221 427C273.785 427 271 424.215 271 420.779Z" fill="#FFFFFF" fill-rule="evenodd"/><g filter="url(#fx2)" transform="translate(258 10)"><g><path d="M9.17157 18.6661C9.17157 13.2329 13.576 8.82843 19.0092 8.82843L236.334 8.82843C241.767 8.82843 246.172 13.2329 246.172 18.6661L246.172 117.991C246.172 123.424 241.767 127.828 236.334 127.828L19.0092 127.828C13.576 127.828 9.17157 123.424 9.17157 117.991Z" fill="#FFFFFF" fill-rule="evenodd"/></g></g><path d="M270 25.8377C270 20.4045 274.404 16 279.838 16L497.162 16C502.596 16 507 20.4045 507 25.8377L507 125.162C507 130.596 502.596 135 497.162 135L279.838 135C274.404 135 270 130.596 270 125.162Z" fill="#FFFFFF" fill-rule="evenodd"/><g filter="url(#fx3)" transform="translate(508 10)"><g><path d="M9.17157 18.6662C9.17157 13.233 13.5761 8.82843 19.0094 8.82843L237.334 8.82843C242.767 8.82843 247.172 13.233 247.172 18.6662L247.172 117.991C247.172 123.424 242.767 127.828 237.334 127.828L19.0094 127.828C13.5761 127.828 9.17157 123.424 9.17157 117.991Z" fill="#FFFFFF" fill-rule="evenodd"/></g></g><path d="M520 25.8378C520 20.4045 524.405 16 529.838 16L748.162 16C753.595 16 758 20.4045 758 25.8378L758 125.162C758 130.595 753.595 135 748.162 135L529.838 135C524.405 135 520 130.595 520 125.162Z" fill="#FFFFFF" fill-rule="evenodd"/><g filter="url(#fx4)" transform="translate(762 10)"><g><path d="M9.17157 18.6662C9.17157 13.233 13.5761 8.82843 19.0094 8.82843L237.334 8.82843C242.767 8.82843 247.172 13.233 247.172 18.6662L247.172 117.991C247.172 123.424 242.767 127.828 237.334 127.828L19.0094 127.828C13.5761 127.828 9.17157 123.424 9.17157 117.991Z" fill="#FFFFFF" fill-rule="evenodd"/></g></g><path d="M774 25.8378C774 20.4045 778.405 16 783.838 16L1002.16 16C1007.6 16 1012 20.4045 1012 25.8378L1012 125.162C1012 130.595 1007.6 135 1002.16 135L783.838 135C778.405 135 774 130.595 774 125.162Z" fill="#FFFFFF" fill-rule="evenodd"/><g filter="url(#fx5)" transform="translate(1014 10)"><g><path d="M9.17157 18.6662C9.17157 13.233 13.5761 8.82843 19.0094 8.82843L237.334 8.82843C242.767 8.82843 247.172 13.233 247.172 18.6662L247.172 117.991C247.172 123.424 242.767 127.828 237.334 127.828L19.0094 127.828C13.5761 127.828 9.17157 123.424 9.17157 117.991Z" fill="#FFFFFF" fill-rule="evenodd"/></g></g><path d="M1026 25.8378C1026 20.4045 1030.4 16 1035.84 16L1254.16 16C1259.6 16 1264 20.4045 1264 25.8378L1264 125.162C1264 130.595 1259.6 135 1254.16 135L1035.84 135C1030.4 135 1026 130.595 1026 125.162Z" fill="#FFFFFF" fill-rule="evenodd"/><g filter="url(#fx6)" transform="translate(762 146)"><g><path d="M9.17157 15.049C9.17157 11.6135 11.9566 8.82843 15.3921 8.82843L487.951 8.82843C491.387 8.82843 494.172 11.6135 494.172 15.049L494.172 277.608C494.172 281.043 491.387 283.828 487.951 283.828L15.3921 283.828C11.9566 283.828 9.17157 281.043 9.17157 277.608Z" fill="#FFFFFF" fill-rule="evenodd"/></g></g><path d="M774 158.221C774 154.785 776.785 152 780.221 152L1252.78 152C1256.21 152 1259 154.785 1259 158.221L1259 420.779C1259 424.215 1256.21 427 1252.78 427L780.221 427C776.785 427 774 424.215 774 420.779Z" fill="#FFFFFF" fill-rule="evenodd"/><g filter="url(#fx7)" transform="translate(260 428)"><g><path d="M9.17157 15.049C9.17157 11.6135 11.9566 8.82843 15.3921 8.82843L487.951 8.82843C491.387 8.82843 494.172 11.6135 494.172 15.049L494.172 277.608C494.172 281.043 491.387 283.828 487.951 283.828L15.3921 283.828C11.9566 283.828 9.17157 281.043 9.17157 277.608Z" fill="#FFFFFF" fill-rule="evenodd"/></g></g><path d="M272 440.221C272 436.785 274.785 434 278.221 434L750.779 434C754.215 434 757 436.785 757 440.221L757 702.779C757 706.215 754.215 709 750.779 709L278.221 709C274.785 709 272 706.215 272 702.779Z" fill="#FFFFFF" fill-rule="evenodd"/><g filter="url(#fx8)" transform="translate(762 428)"><g><path d="M9.17157 15.049C9.17157 11.6135 11.9566 8.82843 15.3921 8.82843L487.951 8.82843C491.387 8.82843 494.172 11.6135 494.172 15.049L494.172 277.608C494.172 281.043 491.387 283.828 487.951 283.828L15.3921 283.828C11.9566 283.828 9.17157 281.043 9.17157 277.608Z" fill="#FFFFFF" fill-rule="evenodd"/></g></g><path d="M774 440.221C774 436.785 776.785 434 780.221 434L1252.78 434C1256.21 434 1259 436.785 1259 440.221L1259 702.779C1259 706.215 1256.21 709 1252.78 709L780.221 709C776.785 709 774 706.215 774 702.779Z" fill="#FFFFFF" fill-rule="evenodd"/><text fill="#D0CECE" font-family="Calibri,Calibri_MSFontService,sans-serif" font-weight="400" font-size="37.3333" transform="translate(64.0004 54)">Análise</text><text fill="#D0CECE" font-family="Calibri,Calibri_MSFontService,sans-serif" font-weight="400" font-size="37.3333" transform="translate(99.5804 99)">de</text><text fill="#D0CECE" font-family="Calibri,Calibri_MSFontService,sans-serif" font-weight="400" font-size="37.3333" transform="translate(66.1337 144)">Fraude</text></g></svg>